<?xml version="1.0" encoding="UTF-8" standalone="no"?>
<!-- Created with Inkscape (http://www.inkscape.org/) -->
<svg
   xmlns:svg="http://www.w3.org/2000/svg"
   xmlns="http://www.w3.org/2000/svg"
   version="1.0"
   width="859.79999"
   height="418.95001"
   id="svg2">
  <defs
     id="defs4" />
  <g
     transform="translate(-3.2250487,-2.0215914)"
     id="layer1">
    <path
       d="M 771.43405,408.29188 C 771.43405,406.86537 778.89416,401.09354 788.01208,395.46565 C 797.12999,389.83775 804.5901,384.24321 804.5901,383.03335 C 804.5901,381.82348 808.15082,376.93512 812.50282,372.17029 C 826.47899,356.86833 830.59829,332.59039 821.54749,318.86353 C 810.81084,302.57988 796.18753,296.97857 744.75193,289.44789 L 707.56032,284.00265 L 633.81227,292.28906 C 542.66243,302.53075 546.92224,302.00357 526.90814,305.51949 C 517.79022,307.12126 504.11335,309.18771 496.51509,310.11158 C 488.91682,311.03544 470.26654,313.54726 455.07002,315.6934 C 439.87349,317.83951 418.73651,320.11233 408.09894,320.74409 C 397.46137,321.37585 383.16282,323.26342 376.32438,324.93869 C 332.18152,335.75279 235.41114,333.75674 235.41114,322.03209 C 235.41114,320.75299 233.00909,319.70644 230.07326,319.70644 C 223.02028,319.70644 213.3071,305.73227 213.3071,295.58525 C 213.3071,277.30774 233.22444,269.34899 304.48626,259.15099 C 340.97611,253.92908 438.32654,255.68582 515.85612,262.96532 C 521.93473,263.53604 542.45004,264.8519 561.44569,265.88941 C 580.44135,266.92691 604.06504,268.71043 613.94278,269.8528 C 640.58887,272.93438 745.03904,272.73779 767.24072,269.56429 C 777.85143,268.04759 793.06998,264.50904 801.05973,261.70088 C 817.47242,255.93228 824.41994,259.45219 809.18528,265.81762 C 793.35484,272.43198 777.34975,275.10071 742.43253,276.94811 C 706.00356,278.87547 696.76929,281.02437 724.91588,281.02437 C 734.78945,281.02437 756.32663,283.45146 772.77632,286.41787 C 821.49132,295.20282 839.80797,310.99709 836.49015,341.35771 C 835.60397,349.46677 833.13498,359.4739 831.00346,363.5958 C 820.13234,384.61824 771.43405,421.15751 771.43405,408.29188 z M 305.69019,326.48498 C 317.18542,325.71272 334.98318,323.98697 345.24075,322.64998 C 355.49832,321.31296 379.43276,318.23332 398.42842,315.80627 C 433.35844,311.34335 472.09526,305.95513 520.00063,298.89582 C 594.32738,287.94302 610.0901,286.17329 670.58438,281.98927 L 700.97743,279.88717 L 647.09884,276.64252 C 617.46561,274.85798 578.30002,272.60312 560.06419,271.6317 C 521.88834,269.59808 493.99531,267.31553 484.08156,265.41389 C 465.72974,261.89363 332.54071,261.08112 306.15791,264.32845 C 271.35747,268.61188 232.58956,279.11378 227.89933,285.52805 C 223.4344,291.63421 223.4988,300.38431 228.05273,306.37343 C 233.18741,313.12637 257.17438,325.2256 265.52496,325.27475 C 269.47766,325.29802 274.51735,326.45934 276.72427,327.85546 C 278.93119,329.25157 281.64876,329.83026 282.7633,329.14144 C 283.87784,328.45262 294.19493,327.25721 305.69019,326.48498 z M 820.14593,256.73869 C 819.40434,255.5388 822.41455,252.12611 826.83527,249.15496 C 835.07281,243.61857 838.84683,236.58885 841.90186,221.09107 C 844.09118,209.98484 839.99088,202.19994 828.94278,196.48674 C 821.68255,192.73234 817.87253,192.50721 805.07833,195.07664 C 782.15315,199.68069 781.53827,199.51214 783.47044,189.15447 C 785.1259,180.28019 785.08937,180.24389 780.36206,186.06388 C 777.73113,189.30292 774.25582,194.18734 772.63916,196.91812 C 770.64551,200.28573 768.05965,201.25386 764.60219,199.92709 C 759.92525,198.13238 760.15121,197.29605 767.34013,189.79242 C 778.01677,178.64842 774.82699,177.09859 761.45457,186.93279 C 748.11213,196.74491 726.17755,202.99687 720.78792,198.52384 C 718.12339,196.3125 714.76457,196.38323 708.40251,198.78464 C 697.33725,202.96131 691.92113,199.02298 696.63004,190.22433 C 699.34883,185.14422 697.40144,185.58668 679.69517,194.0722 C 653.68159,206.53888 650.4268,206.45599 649.33789,193.29897 C 648.63952,184.86112 647.45452,183.02941 642.95433,183.43173 C 639.91503,183.70345 636.18497,186.02672 634.66532,188.59457 C 633.14567,191.16245 629.81881,195.91355 627.27232,199.15259 C 622.97098,204.62373 622.50591,204.69123 620.72046,200.10359 C 619.52129,197.02237 620.64415,193.12612 623.70644,189.74232 C 630.37716,182.37124 627.62886,182.91897 611.99213,192.0769 C 593.97513,202.6289 575.82238,209.56735 573.9899,206.60234 C 573.15934,205.25847 573.22626,202.21364 574.13861,199.83608 C 575.05098,197.45854 573.96661,193.6824 571.72891,191.44469 C 568.14617,187.86199 566.6139,188.67832 558.89682,198.2812 C 554.07687,204.27899 548.32684,209.18625 546.11898,209.18625 C 539.81767,209.18625 541.3282,205.49687 551.77518,195.37123 C 569.08941,178.58962 562.942,178.38853 535.81692,194.84919 C 523.31363,202.4367 517.05173,204.49091 506.89373,204.33734 C 499.76303,204.22953 490.53158,205.89814 486.37939,208.0453 C 477.53217,212.62039 468.54704,213.10999 466.09985,209.15039 C 465.14846,207.61101 469.42681,201.81196 475.60732,196.2636 C 481.7878,190.71526 486.84457,185.07998 486.84457,183.74075 C 486.84457,182.40155 482.182,182.12522 476.4833,183.12672 C 469.0624,184.43089 461.78677,189.17099 450.84538,199.82994 C 442.44322,208.01523 434.0506,214.71226 432.1951,214.71226 C 425.30729,214.71226 429.16707,206.40598 440.15902,197.5737 C 453.41318,186.9237 461.92235,173.26719 455.30404,173.26719 C 453.07521,173.26719 450.48321,174.51054 449.54401,176.0302 C 448.60481,177.54985 446.35555,178.75391 444.54568,178.70589 C 440.69891,178.60382 455.4704,164.97818 459.42783,164.97818 C 460.89531,164.97818 463.56755,168.20788 465.3661,172.1553 C 468.22291,178.42533 469.85212,179.13512 478.25646,177.77128 C 483.54756,176.91264 489.46445,177.52788 491.40507,179.13847 C 493.92938,181.23343 498.87577,180.75737 508.78647,177.46555 C 528.61299,170.88026 535.32698,177.20378 521.38213,189.32868 C 510.89155,198.45013 513.13077,202.25346 524.83588,195.19489 C 555.84859,176.49322 559.24847,175.05427 564.57071,178.37806 C 567.41091,180.1518 569.73471,180.54873 569.73471,179.26012 C 569.73471,176.46396 582.10645,170.50419 587.91097,170.50419 C 595.38694,170.50419 595.34467,178.78024 587.81051,190.16512 L 580.37551,201.40013 L 586.79789,199.52803 C 590.33017,198.49837 599.43701,193.54438 607.03527,188.51917 C 614.63353,183.49396 624.79531,177.4025 629.61698,174.98255 C 634.43864,172.5626 645.62881,162.19691 654.48402,151.94765 C 689.38038,111.55764 708.36123,93.561465 723.74962,86.275422 C 754.49628,71.717565 763.96703,82.0827 740.5617,104.67513 C 725.28585,119.42043 691.93668,145.25947 680.71748,151.04263 C 674.63713,154.17687 674.5531,154.56991 679.2317,157.99101 C 685.83868,162.82215 681.28782,168.38681 665.33318,174.9857 C 654.00069,179.67289 653.63368,180.19424 656.43768,187.62291 C 660.11165,197.35634 663.41913,197.31771 681.62032,187.32878 C 705.67976,174.1248 709.74745,170.81862 722.11082,154.4185 C 734.15448,138.44247 764.02486,108.86633 780.07659,97.023731 C 794.79882,86.162028 811.86833,80.740488 819.86797,84.385361 C 830.55945,89.256731 828.05567,96.110005 809.59728,112.49825 C 784.6267,134.66829 784.00431,135.09056 748.96482,153.63726 C 724.00077,166.85094 715.11857,173.11158 709.18156,181.67869 C 704.97762,187.74498 702.33915,193.50946 703.3183,194.48861 C 705.83805,197.00834 717.56093,191.21144 729.74274,181.42187 C 740.51904,172.76178 760.38203,167.21071 760.38203,172.85912 C 760.38203,174.55202 754.25327,179.04278 746.76254,182.83863 C 733.66364,189.47636 726.83816,195.37123 732.25149,195.37123 C 738.1389,195.37123 756.61616,185.99138 768.29472,177.07414 C 777.98129,169.67788 782.46982,167.90541 788.28089,169.18173 C 792.45513,170.09855 796.58811,169.5121 797.61048,167.85789 C 799.58511,164.66284 804.5901,166.52538 804.5901,170.45528 C 804.5901,171.76865 801.32702,176.72117 797.33879,181.46091 C 788.57783,191.87274 790.30346,194.52813 803.2488,190.55509 C 822.79159,184.55724 840.71868,191.96909 849.5448,209.69594 C 854.25456,219.15528 854.24074,219.97482 849.17232,231.79899 C 842.16067,248.1565 824.31713,263.48783 820.14593,256.73869 z M 499.65822,197.78582 C 509.35109,191.92217 516.57997,184.31921 512.46224,184.31921 C 501.62858,184.31921 478.55556,197.93497 478.55556,204.32809 C 478.55556,207.54912 488.73659,204.3928 499.65822,197.78582 z M 585.04485,181.37238 C 588.28483,176.13 583.5594,174.83638 578.74735,179.64843 C 574.44,183.95579 574.43242,184.31921 578.6501,184.31921 C 581.16554,184.31921 584.04315,182.99313 585.04485,181.37238 z M 669.14007,166.19034 C 672.93395,162.45553 674.41222,159.45217 672.45662,159.45217 C 667.1821,159.45217 654.144,166.72141 649.66061,172.16182 C 646.03262,176.56423 646.3801,176.78618 654.00635,174.93765 C 658.56531,173.83258 665.37548,169.8963 669.14007,166.19034 z M 748.88108,149.32454 C 775.46955,134.69659 818.40513,99.589927 818.40513,92.477538 C 818.40513,91.322271 815.60758,90.388734 812.18837,90.402991 C 802.81007,90.442088 779.50467,104.89083 760.62227,122.37262 C 743.60363,138.1289 725.19845,159.45217 728.61712,159.45217 C 729.63763,159.45217 738.75641,154.89473 748.88108,149.32454 z M 693.35024,136.44952 C 720.20092,117.46201 749.33181,90.271997 744.70115,88.519866 C 735.41375,85.005738 702.0208,110.83898 676.55299,141.24024 C 662.94586,157.48325 664.05208,157.16774 693.35024,136.44952 z M 29.602826,251.35299 C 4.5570735,236.58631 8.0016837,215.56387 41.539531,178.50339 C 82.022827,133.76786 181.24221,76.421829 270.35439,46.254736 C 305.05914,34.506192 334.7715,30.348755 348.02337,35.387121 C 353.14231,37.333326 356.52273,36.616823 362.58396,32.300846 C 374.91252,23.522145 390.46668,17.761032 393.5405,20.834819 C 395.26368,22.557994 390.22244,26.197728 379.36187,31.071668 C 363.5278,38.177562 358.8877,43.604545 365.27237,47.550475 C 373.63289,52.71757 358.29277,83.177044 340.22504,97.284558 C 330.81085,104.63531 329.59471,106.96132 329.48123,117.83328 L 329.3533,130.09298 L 336.95157,123.19143 C 351.0057,110.42597 391.27387,83.205226 424.16161,64.238664 C 447.22087,50.940212 455.93975,44.552007 453.86391,42.476162 C 444.66294,33.275192 456.46169,18.538956 473.02955,18.538956 C 485.64974,18.538956 486.53183,20.974571 478.06106,32.431867 C 474.74979,36.910586 472.95097,41.485403 474.06368,42.598121 C 475.1764,43.71081 483.95065,44.404988 493.56201,44.140706 C 507.20217,43.765656 513.99148,41.935414 524.49869,35.800798 C 554.01048,18.570481 604.49607,6.3410084 611.46243,14.734989 C 612.87905,16.441946 613.37247,19.550326 612.5589,21.642472 C 610.10853,27.943836 564.43764,41.543095 534.26129,44.956898 C 511.608,47.51964 496.53691,59.434103 478.6051,88.956006 C 474.77872,95.255546 470.0909,102.81493 468.18768,105.75463 C 466.2845,108.69436 463.43703,114.10941 461.85996,117.7881 C 460.28289,121.46677 454.69079,130.33681 449.43304,137.49929 C 438.70806,152.10968 438.10926,153.92616 444.018,153.92616 C 446.29748,153.92616 448.1625,155.87499 448.1625,158.25686 C 448.1625,161.23873 446.54394,162.07384 442.96573,160.93817 C 439.10256,159.71206 433.63021,163.59761 421.64056,176.07987 C 412.76991,185.31497 398.83373,197.30381 390.67126,202.72173 C 354.82763,226.51339 292.6083,238.08886 264.40387,226.21288 C 256.81597,223.01788 248.12096,220.67737 245.08165,221.01177 C 241.04576,221.45584 239.53415,219.95915 239.4759,215.46145 C 239.43205,212.07437 237.87786,207.7848 236.02215,205.92908 C 230.35815,200.26506 232.07017,185.43008 239.39199,176.72857 C 243.10113,172.32053 251.01631,167.25172 256.98133,165.46458 C 274.26478,160.28632 279.71995,161.88356 263.67764,167.4252 C 255.6696,170.19147 248.7297,172.94842 248.25565,173.55175 C 238.20691,186.34101 236.25344,193.59039 240.88691,200.89724 C 243.0233,204.26628 246.89269,201.69635 261.56712,187.16204 C 271.49578,177.3282 279.61921,167.07055 279.61921,164.36725 C 279.61921,161.51003 281.66354,159.45217 284.50195,159.45217 C 293.16314,159.45217 317.85863,135.32224 321.44368,123.35641 C 323.24162,117.35539 324.08086,111.81366 323.30865,111.04145 C 322.53645,110.26925 316.43131,112.66099 309.74169,116.35645 C 295.44599,124.25367 284.75087,126.30296 283.0997,121.4613 C 281.82374,117.71977 299.85317,108.95765 315.64847,105.64287 C 333.41749,101.91392 365.40927,62.466998 360.67343,50.125595 C 358.31559,43.98117 354.39204,45.325068 341.97468,56.53024 C 335.6595,62.228937 320.93736,75.47923 309.2588,85.975332 C 297.58024,96.471434 280.59729,114.50004 271.51888,126.0389 C 235.6125,171.67681 196.94633,202.88923 144.23198,228.78844 C 96.843003,252.07126 47.346649,261.81453 29.602826,251.35299 z M 94.766191,239.32859 C 118.45398,232.49606 162.93799,211.66143 185.67705,196.74936 C 195.55479,190.27163 214.20508,173.9819 227.12212,160.54994 C 271.47459,114.42945 320.14581,66.879405 334.30151,55.839489 C 342.09567,49.760879 348.52259,43.670664 348.58351,42.305712 C 348.64601,40.906001 339.35798,40.550016 327.28105,41.489216 C 240.93474,48.204368 71.472763,141.51206 27.96232,206.2975 C 4.9935453,240.49723 36.575849,256.11307 94.766191,239.32859 z M 333.15821,221.59214 C 361.43856,214.22605 388.97027,199.64071 406.92905,182.51091 C 421.09672,168.99724 422.88739,166.26474 418.63958,164.64109 C 414.39082,163.01708 414.89093,162.25247 421.91396,159.63486 C 428.22616,157.28219 433.1682,151.1279 442.6365,133.82931 C 460.28408,101.58711 483.14889,68.381513 494.8178,58.048539 L 504.8041,49.205542 L 490.81252,49.418156 C 483.11717,49.535086 473.94764,48.718811 470.4358,47.604188 C 466.92397,46.489592 463.27335,46.70284 462.32332,48.078098 C 460.72097,50.397668 425.34534,72.24038 406.7977,82.362427 C 384.60569,94.473339 325.7496,136.11133 321.79182,142.50017 C 319.31092,146.505 314.71308,152.72478 311.57442,156.32193 C 305.8876,162.83942 305.88694,162.87307 311.383,165.99245 C 319.65682,170.68837 340.40532,191.43182 340.40532,195.00767 C 340.40532,202.126 331.82183,197.32039 323.85581,185.74216 C 309.66154,165.11149 308.95979,165.23334 281.68957,193.06473 L 257.51139,217.74043 L 266.49306,221.64423 C 278.42208,226.82903 313.15657,226.8019 333.15821,221.59214 z M 275.0214,192.87687 C 291.30024,176.01494 297.73895,164.97818 291.29717,164.97818 C 287.43689,164.97818 246.24758,208.04969 248.22084,210.02294 C 252.47766,214.27977 257.39711,211.13248 275.0214,192.87687 z M 302.74698,158.00673 C 304.06452,154.57328 303.35575,154.33677 298.89806,156.72246 C 292.49325,160.15021 291.88613,162.21517 297.28314,162.21517 C 299.40004,162.21517 301.85876,160.32138 302.74698,158.00673 z M 302.11724,116.42188 C 306.74195,114.03033 309.9795,111.5273 309.31177,110.85959 C 307.89247,109.44029 287.90824,117.43836 287.90824,119.42568 C 287.90824,121.98519 293.74517,120.75123 302.11724,116.42188 z M 465.89605,38.965847 C 471.14689,36.950926 471.75815,29.590946 466.67464,29.590946 C 462.69328,29.590946 456.45152,34.989248 456.45152,38.43256 C 456.45152,41.068328 459.90845,41.263534 465.89605,38.965847 z M 572.49771,31.837131 C 583.89511,28.742593 596.32863,24.534344 600.12776,22.485438 C 606.87621,18.845981 606.7698,18.757647 595.50815,18.649559 C 584.38864,18.542851 542.92326,30.964878 532.15494,37.628636 C 524.81102,42.173281 545.21967,39.243474 572.49771,31.837131 z"
       id="path2453"
       style="fill:#000000" />
  </g>
</svg>
